<svg xmlns="http://www.w3.org/2000/svg" viewBox="0 0 115 91" width="115" height="91"><defs><clipPath id="alignment-5401613164044762691">
<path d="M-161.02810574170243,-63.52044540717108 C-161.02810574170243,-70.69014883733342 -156.348363778933,-76.51410474482276 -150.58726899461362,-76.51410474482276 L-55.967185974121264,-76.51410474482276 C-50.2060911898019,-76.51410474482276 -45.526349227032455,-70.69014883733342 -45.526349227032455,-63.52044540717108 L-45.526349227032455,2.2599549896905415 C-45.526349227032455,9.429658419852885 -50.2060911898019,15.25361432734222 -55.967185974121264,15.25361432734222 L-150.58726899461362,15.25361432734222 C-156.348363778933,15.25361432734222 -161.02810574170243,9.429658419852885 -161.02810574170243,2.2599549896905415 L-161.02810574170243,-63.52044540717108 Z" fill="#000000"/></clipPath></defs><g transform="matrix(1,0,0,1,161.028105742,76.514104745)">
<g>
	<path d="M-161.02810574170243,-63.52044540717108 C-161.02810574170243,-70.69014883733342 -156.348363778933,-76.51410474482276 -150.58726899461362,-76.51410474482276 L-55.967185974121264,-76.51410474482276 C-50.2060911898019,-76.51410474482276 -45.526349227032455,-70.69014883733342 -45.526349227032455,-63.52044540717108 L-45.526349227032455,2.2599549896905415 C-45.526349227032455,9.429658419852885 -50.2060911898019,15.25361432734222 -55.967185974121264,15.25361432734222 L-150.58726899461362,15.25361432734222 C-156.348363778933,15.25361432734222 -161.02810574170243,9.429658419852885 -161.02810574170243,2.2599549896905415 L-161.02810574170243,-63.52044540717108 Z" fill="none"/>
	<path d="M-161.02810574170243,-63.52044540717108 C-161.02810574170243,-70.69014883733342 -156.348363778933,-76.51410474482276 -150.58726899461362,-76.51410474482276 L-55.967185974121264,-76.51410474482276 C-50.2060911898019,-76.51410474482276 -45.526349227032455,-70.69014883733342 -45.526349227032455,-63.52044540717108 L-45.526349227032455,2.2599549896905415 C-45.526349227032455,9.429658419852885 -50.2060911898019,15.25361432734222 -55.967185974121264,15.25361432734222 L-150.58726899461362,15.25361432734222 C-156.348363778933,15.25361432734222 -161.02810574170243,9.429658419852885 -161.02810574170243,2.2599549896905415 L-161.02810574170243,-63.52044540717108 Z" clip-path="url(#alignment-5401613164044762691)" fill="none" stroke="#000000" stroke-width="16" stroke-linecap="round" stroke-linejoin="round"/>
</g>
<g>
	<g>
		<path d="M-127.140625,-61.989620208740234 C-127.140625,-61.989620208740234 -127.140625,-54.942745208740234 -127.140625,-54.942745208740234 Q-129.09375,-54.942745208740234 -130.484375,-54.598995208740234 Q-131.875,-54.270870208740234 -132.5625,-53.380245208740234 Q-133.25,-52.505245208740234 -133.09375,-50.880245208740234 Q-132.109375,-41.442745208740234 -132.109375,-41.442745208740234 Q-131.71875,-37.848995208740234 -132.890625,-35.645870208740234 Q-134.0625,-33.442745208740234 -136.453125,-32.270870208740234 Q-138.828125,-31.098995208740234 -142.0625,-30.630245208740234 Q-138.625,-30.114620208740234 -136.265625,-28.958370208740234 Q-133.890625,-27.802120208740234 -132.8125,-25.630245208740234 Q-131.71875,-23.458370208740234 -132.109375,-19.802120208740234 Q-133.09375,-10.364620208740234 -133.09375,-10.364620208740234 Q-133.25,-8.770870208740234 -132.5625,-7.880245208740234 Q-131.875,-6.973995208740234 -130.46875,-6.645870208740234 Q-129.0625,-6.302120208740234 -127.140625,-6.302120208740234 Q-127.140625,0.7291297912597656 -127.140625,0.7291297912597656 Q-131.5625,0.7291297912597656 -134.640625,0.08850479125976563 Q-137.703125,-0.5364952087402344 -139.546875,-1.9427452087402344 Q-141.390625,-3.3333702087402344 -142.078125,-5.583370208740234 Q-142.765625,-7.833370208740234 -142.4375,-11.067745208740234 Q-141.484375,-20.223995208740234 -141.484375,-20.223995208740234 Q-141.21875,-22.661495208740234 -142.296875,-24.036495208740234 Q-143.375,-25.411495208740234 -145.453125,-25.958370208740234 Q-147.53125,-26.520870208740234 -150.25,-26.520870208740234 Q-150.25,-34.723995208740234 -150.25,-34.723995208740234 Q-147.5625,-34.723995208740234 -145.484375,-35.270870208740234 Q-143.40625,-35.833370208740234 -142.3125,-37.208370208740234 Q-141.21875,-38.598995208740234 -141.484375,-41.020870208740234 Q-142.4375,-50.114620208740234 -142.4375,-50.114620208740234 Q-142.796875,-53.411495208740234 -142.109375,-55.677120208740234 Q-141.421875,-57.958370208740234 -139.578125,-59.348995208740234 Q-137.734375,-60.739620208740234 -134.65625,-61.364620208740234 Q-131.5625,-61.989620208740234 -127.140625,-61.989620208740234 Q-127.140625,-61.989620208740234 -127.140625,-61.989620208740234 ZM-112.3343734741211,-8.223995208740234 C-112.3343734741211,-8.223995208740234 -122.8187484741211,-8.223995208740234 -122.8187484741211,-8.223995208740234 C-122.8187484741211,-8.223995208740234 -122.8187484741211,-52.583370208740234 -122.8187484741211,-52.583370208740234 C-122.8187484741211,-52.583370208740234 -112.3343734741211,-52.583370208740234 -112.3343734741211,-52.583370208740234 C-112.3343734741211,-52.583370208740234 -112.3343734741211,-8.223995208740234 -112.3343734741211,-8.223995208740234 ZM-112.0062484741211,-31.911495208740234 C-112.0062484741211,-31.911495208740234 -99.8812484741211,-52.583370208740234 -99.8812484741211,-52.583370208740234 C-99.8812484741211,-52.583370208740234 -88.8656234741211,-52.583370208740234 -88.8656234741211,-52.583370208740234 C-88.8656234741211,-52.583370208740234 -101.4124984741211,-32.677120208740234 -101.4124984741211,-32.677120208740234 C-101.4124984741211,-32.677120208740234 -87.6624984741211,-8.223995208740234 -87.6624984741211,-8.223995208740234 C-87.6624984741211,-8.223995208740234 -99.8187484741211,-8.223995208740234 -99.8187484741211,-8.223995208740234 C-99.8187484741211,-8.223995208740234 -112.0062484741211,-31.911495208740234 -112.0062484741211,-31.911495208740234 Z" fill="#000000"/>
	</g>
	<g>
		<path d="M-94.3734359741211,-33.520870208740234 C-94.3734359741211,-33.520870208740234 -75.1703109741211,-52.583370208740234 -75.1703109741211,-52.583370208740234 C-75.1703109741211,-52.583370208740234 -55.967185974121094,-33.520870208740234 -55.967185974121094,-33.520870208740234 C-55.967185974121094,-33.520870208740234 -67.2328109741211,-33.520870208740234 -67.2328109741211,-33.520870208740234 C-67.2328109741211,-33.520870208740234 -67.2328109741211,-12.27087020874023 -67.2328109741211,-12.27087020874023 Q-67.2328109741211,-10.83337020874023 -68.1078109741211,-9.95837020874023 Q-68.9984359741211,-9.06774520874023 -70.4359359741211,-9.06774520874023 Q-79.9046859741211,-9.067745208740233 -79.9046859741211,-9.067745208740233 Q-81.3421859741211,-9.067745208740233 -82.2171859741211,-9.958370208740233 Q-83.1078109741211,-10.833370208740233 -83.1078109741211,-12.270870208740233 Q-83.1078109741211,-33.520870208740234 -83.1078109741211,-33.520870208740234 C-83.1078109741211,-33.520870208740234 -94.3734359741211,-33.520870208740234 -94.3734359741211,-33.520870208740234 Z" fill="#000000"/>
	</g>
</g></g></svg>